<svg id="Ebene_1" data-name="Ebene 1" xmlns="http://www.w3.org/2000/svg" xmlns:xlink="http://www.w3.org/1999/xlink" viewBox="0 0 521.337 111.476">
  <defs>
    <style>
      .cls-1 {
        fill: none;
      }

      .cls-2 {
        clip-path: url(#clip-path);
      }

      .cls-3 {
        clip-path: url(#clip-path-2);
      }

      .cls-4 {
        fill: #009fe3;
      }

      .cls-5 {
        fill: #05171d;
      }

      .cls-6 {
        fill: #a8a8a7;
      }
    </style>
    <clipPath id="clip-path" transform="translate(-149.67 -221.189)">
      <rect class="cls-1" x="149.67" y="221.19" width="521.337" height="110.746"/>
    </clipPath>
    <clipPath id="clip-path-2" transform="translate(-149.67 -221.189)">
      <rect class="cls-1" x="149.67" y="221.189" width="423.832" height="78.633"/>
    </clipPath>
  </defs>
  <title>Logo_emtrion_new</title>
  <g class="cls-2">
    <g class="cls-3">
      <path class="cls-4" d="M178.686,283.709a37.267,37.267,0,0,0,9.3,1.061q2.6,0,12.358-.883a8.978,8.978,0,0,0,4.728-1.679,3.986,3.986,0,0,0,1.825-3.1c0-1.422-.969-2.541-2.892-3.367q-9.458,2.83-14.492,2.83a19.283,19.283,0,0,1-5.952-1.106q-3.353-1.1-3.352-2.521,0-.788,2.595-1.5,1.367-.785,13.877-5.117,10.072-3.446,11.445-5.925.147-6.094-7.859-10.642a36.512,36.512,0,0,0-18.382-4.552q-9.757,0-16.013,4.021t-6.107,10.032Q160.532,279.025,178.686,283.709Zm-5.611-22.785c0-2.814,1.478-4.668,4.419-5.551a16.8,16.8,0,0,1,5.177-.7,23.036,23.036,0,0,1,7.459,1.141q3.351,1.153,3.35,3a2.182,2.182,0,0,1-.607,1.406q-2.9,5.192-16.447,5.543C174.194,265.648,173.075,264.041,173.075,260.924Z" transform="translate(-149.67 -221.189)"/>
      <path class="cls-4" d="M213.966,258q0-8.947,10.017-8.957a22.878,22.878,0,0,1,3.948.381q4.25.741,4.249,3.537a14.586,14.586,0,0,1-.5,2.991,14.648,14.648,0,0,0-.494,2.983,3.833,3.833,0,0,0,1.219,2.981,25.011,25.011,0,0,0,6.522-5.768,43.984,43.984,0,0,1,6.076-6.042,13.647,13.647,0,0,1,8.506-2.786,21.532,21.532,0,0,1,5.315.744l3.032,1.768a27.039,27.039,0,0,1,1.218,5.48,14.158,14.158,0,0,0,1.826,5.209q5.161-3.556,10.172-7.091a25.753,25.753,0,0,1,12.757-3.826,26.307,26.307,0,0,1,5.767.653,4.209,4.209,0,0,1,2.735,3.173q.149,1.866.3,3.825A63.509,63.509,0,0,1,298.31,270.8a35.751,35.751,0,0,1-5.463,19.416q-1.367,2.891-7.734,2.892a20.112,20.112,0,0,1-6.683-1.115c-.4,0-.705-.35-.9-1.032a3.036,3.036,0,0,1,.148-2.149,31.681,31.681,0,0,0,4.6-16.806,43.413,43.413,0,0,0-1.521-11.021c0-.433-.205-.654-.614-.654a4.13,4.13,0,0,0-3.192,1.587,92.767,92.767,0,0,0-14.3,18.932,9.053,9.053,0,0,1-4.19,2.519,18,18,0,0,1-6.163,1.125q-3.655,0-5.325-1.824a6.186,6.186,0,0,1-1.673-4.333,24.449,24.449,0,0,1,.911-5.322,24.859,24.859,0,0,0,.908-5.493,8.311,8.311,0,0,0-1.064-4.205,125.335,125.335,0,0,0-7.752,9.889,61.848,61.848,0,0,1-8.062,9.512q-2.431,2.061-7.294,2.058-5.022,0-6.466-2.195a12.9,12.9,0,0,1-1.9-5.36,36.1,36.1,0,0,1-.156-5.972c.2-3.666.31-5.724.31-6.156a24.971,24.971,0,0,0-.383-3.59A24.572,24.572,0,0,1,213.966,258Z" transform="translate(-149.67 -221.189)"/>
      <path class="cls-5" d="M324.345,239.613H332.3V247.9a2.443,2.443,0,0,0,.918,2.04,6.776,6.776,0,0,0,2.908,1.16q2.221.442,5.739.8,3.6.279,5.2.52,1.071.242,1.07,1.041c0,.345-.229.587-.687.72a11.348,11.348,0,0,1-2.6.44q-2.143.281-3.6.481a19.878,19.878,0,0,0-6.046,1.722q-2.221,1.157-2.22,4.24l-.306,11.8a6.185,6.185,0,0,0,2.449,5.2q2.37,1.923,8.647,2.922a7.873,7.873,0,0,1,2.143.44.994.994,0,0,1,.535.961q0,.838-2.525,1.519a24.15,24.15,0,0,1-5.815.681q-8.112,0-11.938-2.6t-4.822-5.682a73.977,73.977,0,0,1-1.377-9.083q-.611-5.64-1-7.961a3.829,3.829,0,0,0-2.907-3.321,43.294,43.294,0,0,0-6.965-1.32q-4.361-.48-4.362-1.32c0-.507.484-.852,1.455-1.041a43.031,43.031,0,0,1,4.743-.64q2.679-.241,4.975-.64a6.568,6.568,0,0,0,2.755-1.2,9.428,9.428,0,0,0,1.685-1.72,11.022,11.022,0,0,0,1.377-2.322q.841-1.921,1.3-3,.23-.6.689-1.642T324.345,239.613Z" transform="translate(-149.67 -221.189)"/>
      <path class="cls-5" d="M395.045,255.461q0,.77-.954,1.133a19.415,19.415,0,0,1-3.981.769q-7.482.89-10.663,2.468a11.3,11.3,0,0,0-4.937,4.9,46.246,46.246,0,0,0-1.991,4.289q-1.428,3.844-2.783,7.85-2.076,5.826-2.074,5.786-.712,2.3-3.579,2.307a2.844,2.844,0,0,1-2.945-1.984,66.967,66.967,0,0,1-1.273-10.155q-.637-8.3-.637-15.05,0-7,.637-8.944a2.473,2.473,0,0,1,2.547-1.658,4.667,4.667,0,0,1,1.83.282,4.446,4.446,0,0,1,1.273.972,22.009,22.009,0,0,0,3.267,3.035,9.136,9.136,0,0,0,3.342,1.214,24.311,24.311,0,0,0,4.854.566q2.547.12,13.134.484a12.339,12.339,0,0,1,3.662.527C394.621,254.518,395.045,254.92,395.045,255.461Z" transform="translate(-149.67 -221.189)"/>
      <path class="cls-5" d="M419.315,241.779a8.649,8.649,0,0,0,5.413-1.893q2.373-1.9,2.374-6.137a4.841,4.841,0,0,0-2.078-4.036,9.114,9.114,0,0,0-5.709-1.607,8.926,8.926,0,0,0-5.485,1.607,4.983,4.983,0,0,0-2.077,4.036q0,4.241,2.372,6.137A7.954,7.954,0,0,0,419.315,241.779Z" transform="translate(-149.67 -221.189)"/>
      <path class="cls-5" d="M426.019,251.712q-2.963-1.2-9.044-1.2a61.5,61.5,0,0,0-9.636.619q-3.857.617-3.856,1.771a1.332,1.332,0,0,0,.964,1.318,20.907,20.907,0,0,0,3.113.863,27.861,27.861,0,0,1,6.227,1.978,4.351,4.351,0,0,1,1.708,3.252q2.372,16.6,3.186,24.627h6.671l3.484-28.91A4.321,4.321,0,0,0,426.019,251.712Z" transform="translate(-149.67 -221.189)"/>
      <path class="cls-5" d="M441.421,275.463a23.833,23.833,0,0,0,10.56,6.779,47.593,47.593,0,0,0,15.944,2.451,48.25,48.25,0,0,0,16.144-2.451,23.653,23.653,0,0,0,10.562-6.82,15.246,15.246,0,0,0,3.654-10.063,14.313,14.313,0,0,0-2.127-7.478,17.582,17.582,0,0,0-5.911-5.688,33.9,33.9,0,0,0-9.632-3.5,60.434,60.434,0,0,0-12.69-1.268,53.861,53.861,0,0,0-16.077,2.186q-6.841,2.23-10.427,6.3a13.816,13.816,0,0,0-3.655,9.623A14.837,14.837,0,0,0,441.421,275.463Zm13.551-20.382q4.649-3.456,12.953-3.455,8.369,0,13.153,3.455,4.717,3.5,4.716,10.453a14.82,14.82,0,0,1-2.125,8,13.36,13.36,0,0,1-6.241,5.12,23.867,23.867,0,0,1-9.5,1.751,22.883,22.883,0,0,1-9.366-1.751,12.605,12.605,0,0,1-6.113-5.12,14.354,14.354,0,0,1-2.191-8Q450.254,258.581,454.972,255.081Z" transform="translate(-149.67 -221.189)"/>
      <path class="cls-5" d="M560.988,280.2c-1.2,5.621-9.327,6.363-9.735.756-.725-3.119-.666-3.983-1.68-8.542a32.9,32.9,0,0,0-5.258-11.813,11.509,11.509,0,0,0-9.752-4.978,13.236,13.236,0,0,0-9.3,3.28,21.469,21.469,0,0,0-5.636,8.173,156.3,156.3,0,0,0-5.181,14.889,6.345,6.345,0,0,1-1.294,2.792,2.93,2.93,0,0,1-2.287.771,3.56,3.56,0,0,1-2.591-.771,5.23,5.23,0,0,1-1.142-2.792,80.968,80.968,0,0,1-.991-8.212q-.454-4.979-.454-9.874a68.149,68.149,0,0,1,1.293-14.646q.451-1.661,2.817-1.661a4.547,4.547,0,0,1,3.126,1.621,11.832,11.832,0,0,0,3.961,2.587q2.36,1.013,8.3,1.012,4.346,0,9.753-.4t9.445-.4q10.894,0,14.247,5.3a15.365,15.365,0,0,1,1.9,6.192,85.818,85.818,0,0,1,.612,9.993A37.812,37.812,0,0,1,560.988,280.2Z" transform="translate(-149.67 -221.189)"/>
    </g>
  </g>
  <g>
    <path class="cls-6" d="M421.849,320.192c.087,2.553,2.088,3.655,4.351,3.655a10.613,10.613,0,0,0,3.916-.639l.522,2.466a13.251,13.251,0,0,1-4.932.9c-4.583,0-7.28-2.843-7.28-7.165,0-3.916,2.378-7.6,6.9-7.6,4.612,0,6.092,3.77,6.092,6.874a8.819,8.819,0,0,1-.116,1.509Zm6.207-2.494c.029-1.306-.551-3.452-2.93-3.452-2.2,0-3.133,2-3.277,3.452Z" transform="translate(-149.67 -221.189)"/>
    <path class="cls-6" d="M434.288,316.335c0-1.625-.028-2.988-.115-4.206h3.074l.145,2.088h.087a4.886,4.886,0,0,1,4.351-2.407,4.073,4.073,0,0,1,3.916,2.61h.059a5.341,5.341,0,0,1,1.74-1.77,4.72,4.72,0,0,1,2.843-.841c2.35,0,4.727,1.6,4.727,6.12v8.325h-3.48v-7.8c0-2.35-.812-3.742-2.523-3.742a2.721,2.721,0,0,0-2.5,1.886,5.113,5.113,0,0,0-.174,1.189v8.47h-3.48v-8.18c0-1.973-.783-3.365-2.436-3.365a2.784,2.784,0,0,0-2.553,2.03,3.048,3.048,0,0,0-.2,1.161v8.354h-3.481Z" transform="translate(-149.67 -221.189)"/>
    <path class="cls-6" d="M458.88,305.66h3.568v8.412h.058a5.111,5.111,0,0,1,4.525-2.263c3.452,0,5.917,2.871,5.889,7.165,0,5.076-3.22,7.6-6.411,7.6a4.861,4.861,0,0,1-4.467-2.436h-.058l-.175,2.117h-3.045c.058-.957.115-2.523.115-3.974Zm3.568,14.765a3.952,3.952,0,0,0,.087.841,3.291,3.291,0,0,0,3.162,2.5c2.233,0,3.6-1.8,3.6-4.642,0-2.494-1.189-4.525-3.568-4.525a3.341,3.341,0,0,0-3.161,2.611,4.222,4.222,0,0,0-.116.928Z" transform="translate(-149.67 -221.189)"/>
    <path class="cls-6" d="M478.369,320.192c.087,2.553,2.088,3.655,4.351,3.655a10.613,10.613,0,0,0,3.916-.639l.522,2.466a13.251,13.251,0,0,1-4.932.9c-4.583,0-7.28-2.843-7.28-7.165,0-3.916,2.378-7.6,6.9-7.6,4.612,0,6.092,3.77,6.092,6.874a8.819,8.819,0,0,1-.116,1.509Zm6.207-2.494c.029-1.306-.551-3.452-2.93-3.452-2.2,0-3.133,2-3.277,3.452Z" transform="translate(-149.67 -221.189)"/>
    <path class="cls-6" d="M503.833,305.66v16.621c0,1.45.059,3.017.116,3.974h-3.19l-.145-2.233h-.058a5.086,5.086,0,0,1-4.612,2.553c-3.365,0-6.033-2.872-6.033-7.223-.029-4.728,2.93-7.542,6.323-7.542a4.5,4.5,0,0,1,3.974,1.856h.059V305.66Zm-3.567,12.356a5.057,5.057,0,0,0-.087-.928,3.126,3.126,0,0,0-3.075-2.524c-2.292,0-3.568,2.03-3.568,4.67,0,2.581,1.276,4.467,3.539,4.467a3.148,3.148,0,0,0,3.075-2.523,3.978,3.978,0,0,0,.116-1.044Z" transform="translate(-149.67 -221.189)"/>
    <path class="cls-6" d="M520.682,305.66v16.621c0,1.45.059,3.017.116,3.974h-3.19l-.146-2.233H517.4a5.085,5.085,0,0,1-4.612,2.553c-3.365,0-6.033-2.872-6.033-7.223-.029-4.728,2.93-7.542,6.323-7.542a4.5,4.5,0,0,1,3.974,1.856h.059V305.66Zm-3.567,12.356a5.047,5.047,0,0,0-.087-.928,3.126,3.126,0,0,0-3.075-2.524c-2.292,0-3.567,2.03-3.567,4.67,0,2.581,1.275,4.467,3.538,4.467A3.148,3.148,0,0,0,517,321.179a3.974,3.974,0,0,0,.116-1.044Z" transform="translate(-149.67 -221.189)"/>
    <path class="cls-6" d="M527.03,320.192c.087,2.553,2.088,3.655,4.351,3.655a10.614,10.614,0,0,0,3.916-.639l.522,2.466a13.25,13.25,0,0,1-4.932.9c-4.583,0-7.28-2.843-7.28-7.165,0-3.916,2.378-7.6,6.9-7.6,4.612,0,6.092,3.77,6.092,6.874a8.819,8.819,0,0,1-.116,1.509Zm6.207-2.494c.029-1.306-.551-3.452-2.93-3.452-2.2,0-3.133,2-3.277,3.452Z" transform="translate(-149.67 -221.189)"/>
    <path class="cls-6" d="M552.494,305.66v16.621c0,1.45.059,3.017.116,3.974h-3.19l-.145-2.233h-.058a5.085,5.085,0,0,1-4.612,2.553c-3.365,0-6.033-2.872-6.033-7.223-.029-4.728,2.93-7.542,6.323-7.542a4.5,4.5,0,0,1,3.974,1.856h.059V305.66Zm-3.567,12.356a5.048,5.048,0,0,0-.087-.928,3.126,3.126,0,0,0-3.075-2.524c-2.292,0-3.567,2.03-3.567,4.67,0,2.581,1.275,4.467,3.538,4.467a3.148,3.148,0,0,0,3.075-2.523,3.974,3.974,0,0,0,.116-1.044Z" transform="translate(-149.67 -221.189)"/>
    <path class="cls-6" d="M562.147,322.977a7.972,7.972,0,0,0,3.626,1.015c1.566,0,2.263-.638,2.263-1.566,0-.957-.58-1.45-2.32-2.06-2.756-.957-3.916-2.465-3.888-4.119,0-2.494,2.06-4.437,5.338-4.437a8.3,8.3,0,0,1,3.742.841l-.7,2.523a6.354,6.354,0,0,0-2.988-.812c-1.276,0-1.973.608-1.973,1.48,0,.9.668,1.334,2.466,1.972,2.553.929,3.742,2.234,3.771,4.322,0,2.553-2,4.438-5.744,4.438a9.1,9.1,0,0,1-4.293-1.016Z" transform="translate(-149.67 -221.189)"/>
    <path class="cls-6" d="M576.648,312.129l2.552,7.57c.29.87.58,1.943.783,2.756h.088c.231-.812.492-1.856.754-2.785l2.2-7.541h3.829l-3.539,9.63c-1.943,5.279-3.248,7.629-4.931,9.079a7.171,7.171,0,0,1-3.742,1.827l-.812-3.017a6.1,6.1,0,0,0,2.089-.986,6.222,6.222,0,0,0,1.943-2.233,1.426,1.426,0,0,0,.232-.638,1.514,1.514,0,0,0-.2-.7l-5.163-12.966Z" transform="translate(-149.67 -221.189)"/>
    <path class="cls-6" d="M588.393,322.977a7.972,7.972,0,0,0,3.626,1.015c1.566,0,2.263-.638,2.263-1.566,0-.957-.58-1.45-2.32-2.06-2.756-.957-3.916-2.465-3.888-4.119,0-2.494,2.06-4.437,5.338-4.437a8.3,8.3,0,0,1,3.742.841l-.7,2.523a6.354,6.354,0,0,0-2.988-.812c-1.276,0-1.973.608-1.973,1.48,0,.9.668,1.334,2.466,1.972,2.553.929,3.742,2.234,3.771,4.322,0,2.553-2,4.438-5.744,4.438a9.1,9.1,0,0,1-4.293-1.016Z" transform="translate(-149.67 -221.189)"/>
    <path class="cls-6" d="M604.75,308.5v3.626h3.394V314.8H604.75v6.236c0,1.712.464,2.611,1.827,2.611a4.4,4.4,0,0,0,1.393-.175l.058,2.728a7.7,7.7,0,0,1-2.582.377,4.147,4.147,0,0,1-3.074-1.189,5.632,5.632,0,0,1-1.1-3.945V314.8h-2.03v-2.668h2.03v-2.611Z" transform="translate(-149.67 -221.189)"/>
    <path class="cls-6" d="M613.188,320.192c.087,2.553,2.088,3.655,4.351,3.655a10.614,10.614,0,0,0,3.916-.639l.522,2.466a13.25,13.25,0,0,1-4.932.9c-4.583,0-7.28-2.843-7.28-7.165,0-3.916,2.378-7.6,6.9-7.6,4.612,0,6.092,3.77,6.092,6.874a8.819,8.819,0,0,1-.116,1.509ZM619.4,317.7c.029-1.306-.551-3.452-2.93-3.452-2.2,0-3.133,2-3.277,3.452Z" transform="translate(-149.67 -221.189)"/>
    <path class="cls-6" d="M625.628,316.335c0-1.625-.028-2.988-.115-4.206h3.074l.145,2.088h.087a4.886,4.886,0,0,1,4.351-2.407,4.072,4.072,0,0,1,3.916,2.61h.059a5.342,5.342,0,0,1,1.74-1.77,4.72,4.72,0,0,1,2.843-.841c2.35,0,4.728,1.6,4.728,6.12v8.325h-3.48v-7.8c0-2.35-.812-3.742-2.523-3.742a2.721,2.721,0,0,0-2.5,1.886,5.108,5.108,0,0,0-.174,1.189v8.47H634.3v-8.18c0-1.973-.783-3.365-2.437-3.365a2.784,2.784,0,0,0-2.553,2.03,3.05,3.05,0,0,0-.2,1.161v8.354h-3.481Z" transform="translate(-149.67 -221.189)"/>
    <path class="cls-6" d="M650.046,322.977a7.972,7.972,0,0,0,3.626,1.015c1.566,0,2.263-.638,2.263-1.566,0-.957-.58-1.45-2.32-2.06-2.756-.957-3.916-2.465-3.888-4.119,0-2.494,2.059-4.437,5.338-4.437a8.3,8.3,0,0,1,3.742.841l-.7,2.523a6.355,6.355,0,0,0-2.988-.812c-1.276,0-1.973.608-1.973,1.48,0,.9.668,1.334,2.466,1.972,2.553.929,3.742,2.234,3.771,4.322,0,2.553-2,4.438-5.744,4.438a9.1,9.1,0,0,1-4.293-1.016Z" transform="translate(-149.67 -221.189)"/>
  </g>
</svg>